<?xml version="1.0" encoding="UTF-8"?>
<svg id="Layer_2" data-name="Layer 2" xmlns="http://www.w3.org/2000/svg" viewBox="0 0 71 71">
  <defs>
    <style>
      .cls-1 {
        opacity: .07;
      }

      .cls-2 {
        fill: #18191a;
      }

      .cls-3 {
        fill: #fff;
      }

      .cls-4 {
        fill: none;
        stroke: #fff;
        stroke-miterlimit: 10;
      }

      .cls-5 {
        opacity: .11;
      }

      .cls-6 {
        opacity: .83;
      }
    </style>
  </defs>
  <g id="Layer_1-2" data-name="Layer 1">
    <g>
      <circle class="cls-2" cx="35.5" cy="35.5" r="35.5"/>
      <g class="cls-6">
        <g class="cls-5">
          <path class="cls-3" d="M27.8,17.9h8.8c4.3,0,7.4,1.9,7.4,8,0,3.4-1.3,6-3.9,6.9v.1c2.9.5,4.7,3.1,4.7,7.4,0,5-2,9.3-8.1,9.3h-8.9s0-31.7,0-31.7ZM33.1,30.8h1.5c2.9,0,4.2-1.2,4.2-4.2s-1.2-4.1-3.8-4.1h-1.9v8.3ZM33.1,44.8h2c2.5,0,4.2-1.1,4.2-4.8s-1.7-4.7-4-4.7h-2.3v9.5h.1Z"/>
        </g>
        <g class="cls-1">
          <path class="cls-4" d="M27.8,17.9h8.8c4.3,0,7.4,1.9,7.4,8,0,3.4-1.3,6-3.9,6.9v.1c2.9.5,4.7,3.1,4.7,7.4,0,5-2,9.3-8.1,9.3h-8.9s0-31.7,0-31.7ZM33.1,30.8h1.5c2.9,0,4.2-1.2,4.2-4.2s-1.2-4.1-3.8-4.1h-1.9v8.3ZM33.1,44.8h2c2.5,0,4.2-1.1,4.2-4.8s-1.7-4.7-4-4.7h-2.3v9.5h.1Z"/>
        </g>
      </g>
    </g>
  </g>
</svg>