<?xml version="1.0" encoding="UTF-8"?>
<svg id="Layer_2" data-name="Layer 2" xmlns="http://www.w3.org/2000/svg" viewBox="0 0 64.4 106.45">
  <defs>
    <style>
      .cls-1 {
        fill: #181818;
      }

      .cls-2 {
        opacity: .07;
      }

      .cls-3 {
        fill: #fff;
      }

      .cls-4 {
        fill: none;
        stroke: #fff;
        stroke-miterlimit: 10;
      }

      .cls-5 {
        opacity: .11;
      }

      .cls-6 {
        opacity: .83;
      }
    </style>
  </defs>
  <g id="Layer_1-2" data-name="Layer 1">
    <g>
      <path class="cls-1" d="M62.99,45.15C60.01,32.4,44.27,0,24.42,0c-1.49.02-2.97.19-4.42.51C-1.91,5.96.05,26.43.05,26.43c3.5,15.22,7.71,17.38,9.87,28.39s.82,26.43.82,26.43c0,0,.51,25.2,24.58,25.2,1.03,0,2.16,0,3.29-.1,27.26-2.37,27.67-47.52,24.38-61.2h0Z"/>
      <g class="cls-6">
        <g class="cls-5">
          <path class="cls-3" d="M26.79,35.38h5.97l3.5,9.98,3.39-9.98h5.86l-6.27,15.22,6.69,15.53h-6.07l-3.91-10.39-3.81,10.39h-5.86l6.69-15.53-6.17-15.22h-.01Z"/>
        </g>
        <g class="cls-2">
          <path class="cls-4" d="M26.79,35.38h5.97l3.5,9.98,3.39-9.98h5.86l-6.27,15.22,6.69,15.53h-6.07l-3.91-10.39-3.81,10.39h-5.86l6.69-15.53-6.17-15.22h-.01Z"/>
        </g>
      </g>
    </g>
  </g>
</svg>