<?xml version="1.0" encoding="UTF-8"?>
<svg id="Layer_2" data-name="Layer 2" xmlns="http://www.w3.org/2000/svg" viewBox="0 0 105.57 67.53">
  <defs>
    <style>
      .cls-1 {
        fill: #181818;
      }

      .cls-2 {
        opacity: .07;
      }

      .cls-3 {
        fill: #fff;
      }

      .cls-4 {
        fill: none;
        stroke: #fff;
        stroke-miterlimit: 10;
      }

      .cls-5 {
        opacity: .11;
      }

      .cls-6 {
        opacity: .83;
      }
    </style>
  </defs>
  <g id="Layer_1-2" data-name="Layer 1">
    <g>
      <path class="cls-1" d="M82.08,52.08h.31s27.28-2.88,22.65-29.85C101.95,4.73,82.09,0,64.79,0c-9.47,0-18.12,1.44-22.85,2.99C28.56,7.42-6.23,28.11.97,49.52c5.35,15.96,18.12,18.01,24.19,18.01,1.1.01,2.2-.06,3.29-.21,14.93-4.74,16.78-9.16,27.59-12.25,9.98-2.88,23.98-2.99,26.04-2.99h0Z"/>
      <g class="cls-6">
        <g class="cls-5">
          <path class="cls-3" d="M48.72,16.26l3.5,11.94h.1l3.71-11.94h5.87l-6.9,18.73v12.15h-5.46v-12.15l-6.9-18.73h6.08Z"/>
        </g>
        <g class="cls-2">
          <path class="cls-4" d="M48.72,16.26l3.5,11.94h.1l3.71-11.94h5.87l-6.9,18.73v12.15h-5.46v-12.15l-6.9-18.73h6.08Z"/>
        </g>
      </g>
    </g>
  </g>
</svg>