<?xml version="1.0" encoding="UTF-8"?>
<svg id="Layer_1" xmlns="http://www.w3.org/2000/svg" version="1.1" viewBox="0 0 515.44 114.02">
  <!-- Generator: Adobe Illustrator 30.2.1, SVG Export Plug-In . SVG Version: 2.1.1 Build 1)  -->
  <defs>
    <style>
      .st0 {
        fill: #181818;
      }

      .st1 {
        opacity: .07;
      }

      .st2 {
        fill: #18191a;
      }

      .st3 {
        fill: #fff;
      }

      .st4 {
        fill: none;
        stroke: #fff;
        stroke-miterlimit: 10;
      }

      .st5 {
        fill: #ceb43b;
      }

      .st6 {
        opacity: .11;
      }

      .st7 {
        opacity: .83;
      }
    </style>
  </defs>
  <g>
    <circle class="st2" cx="57" cy="57.02" r="57"/>
    <g class="st7">
      <g class="st6">
        <path class="st3" d="M53.8,39.72h6.5l6.9,30.9h-5.5l-1.2-6.6h-6.9l-1.2,6.5h-5.5l6.9-30.8ZM54.5,58.92h5.1l-2.5-13.9h-.1l-2.5,13.9Z"/>
      </g>
      <g class="st1">
        <path class="st4" d="M53.8,39.72h6.5l6.9,30.9h-5.5l-1.2-6.6h-6.9l-1.2,6.5h-5.5l6.9-30.8ZM54.5,58.92h5.1l-2.5-13.9h-.1l-2.5,13.9Z"/>
      </g>
    </g>
  </g>
  <g>
    <circle class="st2" cx="151.5" cy="35.52" r="35.5"/>
    <g class="st7">
      <g class="st6">
        <path class="st3" d="M143.8,17.92h8.8c4.3,0,7.4,1.9,7.4,8,0,3.4-1.3,6-3.9,6.9v.1c2.9.5,4.7,3.1,4.7,7.4,0,5-2,9.3-8.1,9.3h-8.9v-31.7ZM149.1,30.82h1.5c2.9,0,4.2-1.2,4.2-4.2s-1.2-4.1-3.8-4.1h-1.9v8.3ZM149.1,44.82h2c2.5,0,4.2-1.1,4.2-4.8s-1.7-4.7-4-4.7h-2.3v9.5h.1Z"/>
      </g>
      <g class="st1">
        <path class="st4" d="M143.8,17.92h8.8c4.3,0,7.4,1.9,7.4,8,0,3.4-1.3,6-3.9,6.9v.1c2.9.5,4.7,3.1,4.7,7.4,0,5-2,9.3-8.1,9.3h-8.9v-31.7ZM149.1,30.82h1.5c2.9,0,4.2-1.2,4.2-4.2s-1.2-4.1-3.8-4.1h-1.9v8.3ZM149.1,44.82h2c2.5,0,4.2-1.1,4.2-4.8s-1.7-4.7-4-4.7h-2.3v9.5h.1Z"/>
      </g>
    </g>
  </g>
  <path id="Z_Button" class="st5" d="M453.8,41.52c5.8,1.9,11.6,4.2,17.5,6.8,11.29,4.5,22.17,9.99,32.5,16.4,3.1,2.2,6,4.4,8.8,6.6.6-.8,1.3-2,2.4-3.6,4.6-9-27.7-37.2-74-54.6S364.1.42,361.9,1.02c-1.52.53-2.84,1.51-3.8,2.8,52.3,17.1,87.6,33.8,95.7,37.7Z"/>
  <g>
    <path class="st0" d="M359.56,43.9c-2.98-12.75-18.72-45.15-38.57-45.15-1.49.02-2.97.19-4.42.51-21.91,5.45-19.95,25.92-19.95,25.92,3.5,15.22,7.71,17.38,9.87,28.39s.82,26.43.82,26.43c0,0,.51,25.2,24.58,25.2,1.03,0,2.16,0,3.29-.1,27.26-2.37,27.67-47.52,24.38-61.2Z"/>
    <g class="st7">
      <g class="st6">
        <path class="st3" d="M323.36,34.13h5.97l3.5,9.98,3.39-9.98h5.86l-6.27,15.22,6.69,15.53h-6.07l-3.91-10.39-3.81,10.39h-5.86l6.69-15.53-6.17-15.22Z"/>
      </g>
      <g class="st1">
        <path class="st4" d="M323.36,34.13h5.97l3.5,9.98,3.39-9.98h5.86l-6.27,15.22,6.69,15.53h-6.07l-3.91-10.39-3.81,10.39h-5.86l6.69-15.53-6.17-15.22Z"/>
      </g>
    </g>
  </g>
  <g>
    <path class="st0" d="M271.09,53.64h.31s27.28-2.88,22.65-29.85c-3.09-17.5-22.95-22.23-40.25-22.23-9.47,0-18.12,1.44-22.85,2.99-13.38,4.43-48.17,25.12-40.97,46.53,5.35,15.96,18.12,18.01,24.19,18.01,1.1.01,2.2-.06,3.29-.21,14.93-4.74,16.78-9.16,27.59-12.25,9.98-2.88,23.98-2.99,26.04-2.99Z"/>
    <g class="st7">
      <g class="st6">
        <path class="st3" d="M237.73,17.82l3.5,11.94h.1l3.71-11.94h5.87l-6.9,18.73v12.15h-5.46v-12.15l-6.9-18.73h6.07Z"/>
      </g>
      <g class="st1">
        <path class="st4" d="M237.73,17.82l3.5,11.94h.1l3.71-11.94h5.87l-6.9,18.73v12.15h-5.46v-12.15l-6.9-18.73h6.07Z"/>
      </g>
    </g>
  </g>
</svg>